<svg width="47" height="41" viewBox="0 0 47 41" fill="none" xmlns="http://www.w3.org/2000/svg">
<g clip-path="url(#clip0_21_23)">
<g filter="url(#filter0_d_21_23)">
<path d="M8 6.47741L14.4486 5.77152L8.45714 4.77603L23.5 3L39.5429 4.77603L33.1429 5.7685L40 6.47741L25.8286 8.17878L23.5 34L21.2571 8.17878L8 6.47741Z" fill="#FFBB0D"/>
<path d="M23.5 34L23.5429 4.77603M23.5 34L21.2571 8.17878L8 6.47741L23.5429 4.77603M23.5 34L25.8286 8.17878L40 6.47741L23.5429 4.77603M21.2571 6.90275L8.45714 4.77603L23.5 3L39.5429 4.77603L25.8286 6.90275" stroke="#542E71" stroke-width="0.1"/>
</g>
</g>
<defs>
<filter id="filter0_d_21_23" x="7.99364" y="2.94899" width="40.0123" height="39.0555" filterUnits="userSpaceOnUse" color-interpolation-filters="sRGB">
<feFlood flood-opacity="0" result="BackgroundImageFix"/>
<feColorMatrix in="SourceAlpha" type="matrix" values="0 0 0 0 0 0 0 0 0 0 0 0 0 0 0 0 0 0 127 0" result="hardAlpha"/>
<feOffset dx="4" dy="4"/>
<feGaussianBlur stdDeviation="2"/>
<feComposite in2="hardAlpha" operator="out"/>
<feColorMatrix type="matrix" values="0 0 0 0 0 0 0 0 0 0 0 0 0 0 0 0 0 0 1 0"/>
<feBlend mode="normal" in2="BackgroundImageFix" result="effect1_dropShadow_21_23"/>
<feBlend mode="normal" in="SourceGraphic" in2="effect1_dropShadow_21_23" result="shape"/>
</filter>
<clipPath id="clip0_21_23">
<rect width="47" height="41" fill="white"/>
</clipPath>
</defs>
</svg>
