<svg width="18" height="25" viewBox="0 0 18 25" fill="none" xmlns="http://www.w3.org/2000/svg">
<mask id="path-1-inside-1_2_19" fill="white">
<path fill-rule="evenodd" clip-rule="evenodd" d="M17.2941 12.5C17.7487 11.4241 18 10.2414 18 9C18 4.02944 13.9706 0 9 0C4.02944 0 0 4.02944 0 9C0 10.2414 0.251341 11.4241 0.70591 12.5C0.251341 13.5759 0 14.7586 0 16C0 20.9706 4.02944 25 9 25C13.9706 25 18 20.9706 18 16C18 14.7586 17.7487 13.5759 17.2941 12.5Z"/>
</mask>
<path d="M17.2941 12.5L16.3729 12.1108L16.2085 12.5L16.3729 12.8892L17.2941 12.5ZM0.70591 12.5L1.62707 12.8892L1.7915 12.5L1.62707 12.1108L0.70591 12.5ZM17 9C17 10.1053 16.7764 11.1559 16.3729 12.1108L18.2152 12.8892C18.7209 11.6924 19 10.3775 19 9H17ZM9 1C13.4183 1 17 4.58172 17 9H19C19 3.47715 14.5228 -1 9 -1V1ZM1 9C1 4.58172 4.58172 1 9 1V-1C3.47715 -1 -1 3.47715 -1 9H1ZM1.62707 12.1108C1.22359 11.1559 1 10.1053 1 9H-1C-1 10.3775 -0.72091 11.6924 -0.215246 12.8892L1.62707 12.1108ZM1 16C1 14.8947 1.22359 13.8442 1.62707 12.8892L-0.215246 12.1108C-0.72091 13.3076 -1 14.6225 -1 16H1ZM9 24C4.58172 24 1 20.4183 1 16H-1C-1 21.5228 3.47715 26 9 26V24ZM17 16C17 20.4183 13.4183 24 9 24V26C14.5228 26 19 21.5228 19 16H17ZM16.3729 12.8892C16.7764 13.8442 17 14.8947 17 16H19C19 14.6225 18.7209 13.3076 18.2152 12.1108L16.3729 12.8892Z" fill="black" mask="url(#path-1-inside-1_2_19)"/>
</svg>
