<svg width="32" height="32" viewBox="0 0 32 32" fill="none" xmlns="http://www.w3.org/2000/svg">
<g clip-path="url(#clip0_18_16)">
<g filter="url(#filter0_d_18_16)">
<path d="M0 3.97741L6.44864 3.27152L0.457143 2.27603L15.5 0.5L31.5429 2.27603L25.1429 3.2685L32 3.97741L17.8286 5.67878L15.5 31.5L13.2571 5.67878L0 3.97741Z" fill="#FFBB0D"/>
<path d="M15.5 31.5L15.5429 2.27603M15.5 31.5L13.2571 5.67878L0 3.97741L15.5429 2.27603M15.5 31.5L17.8286 5.67878L32 3.97741L15.5429 2.27603M13.2571 4.40275L0.457143 2.27603L15.5 0.5L31.5429 2.27603L17.8286 4.40275" stroke="#542E71" stroke-width="0.1"/>
</g>
</g>
<defs>
<filter id="filter0_d_18_16" x="-4.00636" y="0.44899" width="40.0123" height="39.0555" filterUnits="userSpaceOnUse" color-interpolation-filters="sRGB">
<feFlood flood-opacity="0" result="BackgroundImageFix"/>
<feColorMatrix in="SourceAlpha" type="matrix" values="0 0 0 0 0 0 0 0 0 0 0 0 0 0 0 0 0 0 127 0" result="hardAlpha"/>
<feOffset dy="4"/>
<feGaussianBlur stdDeviation="2"/>
<feComposite in2="hardAlpha" operator="out"/>
<feColorMatrix type="matrix" values="0 0 0 0 0 0 0 0 0 0 0 0 0 0 0 0 0 0 0.25 0"/>
<feBlend mode="normal" in2="BackgroundImageFix" result="effect1_dropShadow_18_16"/>
<feBlend mode="normal" in="SourceGraphic" in2="effect1_dropShadow_18_16" result="shape"/>
</filter>
<clipPath id="clip0_18_16">
<rect width="32" height="32" fill="white"/>
</clipPath>
</defs>
</svg>
