<svg width="48" height="48" viewBox="0 0 48 48" fill="none" xmlns="http://www.w3.org/2000/svg">
<g clip-path="url(#clip0_19_5)">
<g filter="url(#filter0_d_19_5)">
<path d="M8 11.4774L14.4486 10.7715L8.45714 9.77603L23.5 8L39.5429 9.77603L33.1429 10.7685L40 11.4774L25.8286 13.1788L23.5 39L21.2571 13.1788L8 11.4774Z" fill="#FFBB0D"/>
<path d="M23.5 39L23.5429 9.77603M23.5 39L21.2571 13.1788L8 11.4774L23.5429 9.77603M23.5 39L25.8286 13.1788L40 11.4774L23.5429 9.77603M21.2571 11.9027L8.45714 9.77603L23.5 8L39.5429 9.77603L25.8286 11.9027" stroke="#542E71" stroke-width="0.1"/>
</g>
</g>
<defs>
<filter id="filter0_d_19_5" x="7.99364" y="7.94899" width="40.0123" height="39.0555" filterUnits="userSpaceOnUse" color-interpolation-filters="sRGB">
<feFlood flood-opacity="0" result="BackgroundImageFix"/>
<feColorMatrix in="SourceAlpha" type="matrix" values="0 0 0 0 0 0 0 0 0 0 0 0 0 0 0 0 0 0 127 0" result="hardAlpha"/>
<feOffset dx="4" dy="4"/>
<feGaussianBlur stdDeviation="2"/>
<feComposite in2="hardAlpha" operator="out"/>
<feColorMatrix type="matrix" values="0 0 0 0 0 0 0 0 0 0 0 0 0 0 0 0 0 0 0.25 0"/>
<feBlend mode="normal" in2="BackgroundImageFix" result="effect1_dropShadow_19_5"/>
<feBlend mode="normal" in="SourceGraphic" in2="effect1_dropShadow_19_5" result="shape"/>
</filter>
<clipPath id="clip0_19_5">
<rect width="48" height="48" fill="white"/>
</clipPath>
</defs>
</svg>
