<svg width="514" height="391" viewBox="0 0 514 391" fill="none" xmlns="http://www.w3.org/2000/svg">
<rect x="161.5" y="221.5" width="183" height="101" rx="9.5" stroke="black"/>
<path d="M169.214 326.5H336.786C341.321 326.5 345.224 329.706 346.105 334.155L352.145 364.655C353.308 370.528 348.813 376 342.826 376H163.174C157.187 376 152.692 370.528 153.855 364.655L159.895 334.155C160.776 329.706 164.679 326.5 169.214 326.5Z" stroke="black"/>
<path d="M172.49 330.5H333.226C337.741 330.5 341.632 333.678 342.534 338.102L344.063 345.602C345.264 351.49 340.765 357 334.755 357H170.688C164.543 357 160.015 351.255 161.45 345.28L163.253 337.78C164.279 333.51 168.098 330.5 172.49 330.5Z" stroke="black"/>
<path d="M235.534 360.5H270.466C273.181 360.5 275.518 362.42 276.046 365.084C276.742 368.601 274.051 371.877 270.466 371.877H235.534C231.949 371.877 229.258 368.601 229.954 365.084C230.482 362.42 232.819 360.5 235.534 360.5Z" stroke="black"/>
<rect x="174.5" y="231.5" width="157" height="81" rx="9.5" stroke="black"/>
<rect x="151.5" y="379.5" width="203" height="11" rx="3.5" stroke="black"/>
<circle cx="253" cy="227" r="1.5" stroke="black"/>
<circle cx="199" cy="212" r="1.5" stroke="black"/>
<circle cx="255" cy="212" r="1.5" stroke="black"/>
<circle cx="311" cy="212" r="1.5" stroke="black"/>
<circle cx="442" cy="75" r="1.5" stroke="black"/>
<path d="M311 210V136H442V77" stroke="black"/>
<path d="M199 210V136H68V77" stroke="black"/>
<path d="M255 210V115" stroke="black"/>
<circle cx="68" cy="75" r="1.5" stroke="black"/>
<circle cx="255" cy="113" r="1.5" stroke="black"/>
<mask id="path-17-inside-1_20_107" fill="white">
<path fill-rule="evenodd" clip-rule="evenodd" d="M20.5 66H81H114H116V65.9142C127.766 64.9007 137 55.0287 137 43C137 30.2975 126.703 20 114 20C113.122 20 112.255 20.0492 111.403 20.145C106.391 8.3061 94.6653 0 81 0C72.2399 0 64.277 3.41335 58.3688 8.9826C55.162 7.70344 51.6631 7 48 7C36.0434 7 25.8371 14.4944 21.8225 25.042C21.3853 25.0141 20.9443 25 20.5 25C9.17816 25 0 34.1782 0 45.5C0 56.6547 8.90918 65.7285 20 65.994V66H20.5Z"/>
</mask>
<path d="M116 66H118V68H116V66ZM116 65.9142H114V64.0791L115.828 63.9216L116 65.9142ZM111.403 20.145L111.626 22.1325L110.143 22.2992L109.561 20.9248L111.403 20.145ZM58.3688 8.9826L59.7407 10.4379L58.8125 11.3128L57.6278 10.8403L58.3688 8.9826ZM21.8225 25.042L23.6917 25.7534L23.1671 27.1316L21.6954 27.0379L21.8225 25.042ZM20 65.994L20.0479 63.9946L22 64.0413V65.994H20ZM20 66V68H18V66H20ZM20.5 64H81V68H20.5V64ZM81 64H114V68H81V64ZM114 64H116V68H114V64ZM114 66V65.9142H118V66H114ZM115.828 63.9216C126.569 62.9964 135 53.9817 135 43H139C139 56.0757 128.963 66.8051 116.172 67.9069L115.828 63.9216ZM135 43C135 31.402 125.598 22 114 22V18C127.807 18 139 29.1929 139 43H135ZM114 22C113.197 22 112.404 22.045 111.626 22.1325L111.179 18.1576C112.106 18.0534 113.047 18 114 18V22ZM109.561 20.9248C104.851 9.79933 93.8339 2 81 2V-2C95.4966 -2 107.93 6.81287 113.244 19.3653L109.561 20.9248ZM81 2C72.7699 2 65.2925 5.20457 59.7407 10.4379L56.997 7.52725C63.2615 1.62212 71.7099 -2 81 -2V2ZM57.6278 10.8403C54.6528 9.65357 51.4052 9 48 9V5C51.9211 5 55.6712 5.7533 59.1098 7.12493L57.6278 10.8403ZM48 9C36.9005 9 27.4208 15.956 23.6917 25.7534L19.9533 24.3305C24.2535 13.0328 35.1862 5 48 5V9ZM21.6954 27.0379C21.3004 27.0128 20.9018 27 20.5 27V23C20.9867 23 21.4701 23.0155 21.9496 23.046L21.6954 27.0379ZM20.5 27C10.2827 27 2 35.2827 2 45.5H-2C-2 33.0736 8.07359 23 20.5 23V27ZM2 45.5C2 55.5662 10.04 63.755 20.0479 63.9946L19.9521 67.9934C7.77833 67.702 -2 57.7432 -2 45.5H2ZM22 65.994V66H18V65.994H22ZM20 64H20.5V68H20V64Z" fill="black" mask="url(#path-17-inside-1_20_107)"/>
<mask id="path-19-inside-2_20_107" fill="white">
<path fill-rule="evenodd" clip-rule="evenodd" d="M397.5 66H458H491H493V65.9142C504.766 64.9007 514 55.0287 514 43C514 30.2975 503.703 20 491 20C490.122 20 489.255 20.0492 488.403 20.145C483.391 8.3061 471.665 0 458 0C449.24 0 441.277 3.41335 435.369 8.9826C432.162 7.70344 428.663 7 425 7C413.043 7 402.837 14.4944 398.823 25.042C398.385 25.0141 397.944 25 397.5 25C386.178 25 377 34.1782 377 45.5C377 56.6547 385.909 65.7285 397 65.994V66H397.5Z"/>
</mask>
<path d="M493 66H495V68H493V66ZM493 65.9142H491V64.0791L492.828 63.9216L493 65.9142ZM488.403 20.145L488.626 22.1325L487.143 22.2992L486.561 20.9248L488.403 20.145ZM435.369 8.9826L436.741 10.4379L435.813 11.3128L434.628 10.8403L435.369 8.9826ZM398.823 25.042L400.692 25.7534L400.167 27.1316L398.695 27.0379L398.823 25.042ZM397 65.994L397.048 63.9946L399 64.0413V65.994H397ZM397 66V68H395V66H397ZM397.5 64H458V68H397.5V64ZM458 64H491V68H458V64ZM491 64H493V68H491V64ZM491 66V65.9142H495V66H491ZM492.828 63.9216C503.569 62.9964 512 53.9817 512 43H516C516 56.0757 505.963 66.8051 493.172 67.9069L492.828 63.9216ZM512 43C512 31.402 502.598 22 491 22V18C504.807 18 516 29.1929 516 43H512ZM491 22C490.197 22 489.404 22.045 488.626 22.1325L488.179 18.1576C489.106 18.0534 490.047 18 491 18V22ZM486.561 20.9248C481.851 9.79933 470.834 2 458 2V-2C472.497 -2 484.93 6.81287 490.244 19.3653L486.561 20.9248ZM458 2C449.77 2 442.293 5.20457 436.741 10.4379L433.997 7.52725C440.261 1.62212 448.71 -2 458 -2V2ZM434.628 10.8403C431.653 9.65357 428.405 9 425 9V5C428.921 5 432.671 5.7533 436.11 7.12493L434.628 10.8403ZM425 9C413.901 9 404.421 15.956 400.692 25.7534L396.953 24.3305C401.253 13.0328 412.186 5 425 5V9ZM398.695 27.0379C398.3 27.0128 397.902 27 397.5 27V23C397.987 23 398.47 23.0155 398.95 23.046L398.695 27.0379ZM397.5 27C387.283 27 379 35.2827 379 45.5H375C375 33.0736 385.074 23 397.5 23V27ZM379 45.5C379 55.5662 387.04 63.755 397.048 63.9946L396.952 67.9934C384.778 67.702 375 57.7432 375 45.5H379ZM399 65.994V66H395V65.994H399ZM397 64H397.5V68H397V64Z" fill="black" mask="url(#path-19-inside-2_20_107)"/>
<mask id="path-21-inside-3_20_107" fill="white">
<path fill-rule="evenodd" clip-rule="evenodd" d="M313.011 103.642H239.263L196.599 103.642V103.522C182.256 102.099 171 88.2422 171 71.3579C171 53.5277 183.552 39.0734 199.036 39.0734C200.107 39.0734 201.163 39.1425 202.203 39.277C208.312 22.659 222.605 11 239.263 11C249.941 11 259.648 15.7912 266.85 23.6086C270.759 21.8131 275.024 20.8257 279.489 20.8257C294.064 20.8257 306.505 31.3454 311.399 46.1507C311.932 46.1116 312.469 46.0918 313.011 46.0918C326.812 46.0918 338 58.9749 338 74.8671C338 90.5246 327.14 103.261 313.62 103.634V103.642L313.011 103.642Z"/>
</mask>
<path d="M313.011 103.642L313.011 101.642H313.011V103.642ZM239.263 103.642L239.263 101.642L239.263 101.642L239.263 103.642ZM196.599 103.642H194.599V105.642L196.599 105.642L196.599 103.642ZM196.599 103.522H198.599V101.711L196.796 101.532L196.599 103.522ZM202.203 39.277L201.946 41.2605L203.529 41.4654L204.08 39.9672L202.203 39.277ZM266.85 23.6086L265.379 24.9637L266.364 26.0328L267.684 25.4261L266.85 23.6086ZM311.399 46.1507L309.5 46.7784L309.989 48.2594L311.545 48.1454L311.399 46.1507ZM313.62 103.634L313.565 101.635L311.62 101.688V103.634H313.62ZM313.62 103.642L313.62 105.642L315.62 105.642V103.642H313.62ZM313.011 101.642H239.263V105.642H313.011V101.642ZM239.263 101.642L196.599 101.642L196.599 105.642L239.263 105.642L239.263 101.642ZM198.599 103.642V103.522H194.599V103.642H198.599ZM196.796 101.532C183.686 100.231 173 87.4398 173 71.3579H169C169 89.0447 180.825 103.967 196.401 105.512L196.796 101.532ZM173 71.3579C173 54.358 184.913 41.0734 199.036 41.0734V37.0734C182.192 37.0734 169 52.6973 169 71.3579H173ZM199.036 41.0734C200.021 41.0734 200.992 41.137 201.946 41.2605L202.459 37.2936C201.335 37.1481 200.193 37.0734 199.036 37.0734V41.0734ZM204.08 39.9672C209.96 23.9724 223.605 13 239.263 13V9C221.605 9 206.664 21.3457 200.326 38.5869L204.08 39.9672ZM239.263 13C249.316 13 258.508 17.506 265.379 24.9637L268.321 22.2535C260.787 14.0764 250.566 9 239.263 9V13ZM267.684 25.4261C271.342 23.746 275.323 22.8257 279.489 22.8257V18.8257C274.724 18.8257 270.175 19.8801 266.015 21.7912L267.684 25.4261ZM279.489 22.8257C293.03 22.8257 304.819 32.6175 309.5 46.7784L313.298 45.523C308.191 30.0733 295.097 18.8257 279.489 18.8257V22.8257ZM311.545 48.1454C312.03 48.1098 312.518 48.0918 313.011 48.0918V44.0918C312.421 44.0918 311.834 44.1134 311.253 44.1561L311.545 48.1454ZM313.011 48.0918C325.452 48.0918 336 59.8053 336 74.8671H340C340 58.1446 328.172 44.0918 313.011 44.0918V48.0918ZM336 74.8671C336 89.7018 325.759 101.299 313.565 101.635L313.676 105.633C328.52 105.224 340 91.3474 340 74.8671H336ZM311.62 103.634V103.642H315.62V103.634H311.62ZM313.62 101.642L313.011 101.642L313.011 105.642L313.62 105.642L313.62 101.642Z" fill="black" mask="url(#path-21-inside-3_20_107)"/>
</svg>
