<svg width="600" height="160" viewBox="0 0 600 160" fill="none" xmlns="http://www.w3.org/2000/svg">
<rect width="600" height="160" rx="10" fill="#002240"/>
<path d="M18.412 88V75.364H20.128L20.284 77.116C20.796 76.468 21.436 75.972 22.204 75.628C22.98 75.276 23.732 75.1 24.46 75.1C25.7 75.1 26.6 75.428 27.16 76.084C27.728 76.74 28.012 77.652 28.012 78.82V88H25.996V80.308C25.996 79.444 25.948 78.748 25.852 78.22C25.756 77.684 25.556 77.296 25.252 77.056C24.948 76.808 24.476 76.684 23.836 76.684C23.34 76.684 22.872 76.792 22.432 77.008C22 77.224 21.612 77.496 21.268 77.824C20.932 78.144 20.652 78.468 20.428 78.796V88H18.412ZM38.4546 75.1C39.5746 75.1 40.4666 75.372 41.1306 75.916C41.8026 76.46 42.2866 77.228 42.5826 78.22C42.8786 79.204 43.0266 80.356 43.0266 81.676C43.0266 82.948 42.8466 84.084 42.4866 85.084C42.1346 86.076 41.5986 86.856 40.8786 87.424C40.1586 87.992 39.2506 88.276 38.1546 88.276C36.7706 88.276 35.6586 87.788 34.8186 86.812V92.836L32.8026 93.088V75.364H34.5186L34.6866 77.128C35.1506 76.48 35.7026 75.98 36.3426 75.628C36.9906 75.276 37.6946 75.1 38.4546 75.1ZM37.9746 76.72C37.2786 76.72 36.6626 76.932 36.1266 77.356C35.5986 77.772 35.1626 78.236 34.8186 78.748V85.012C35.1466 85.5 35.5586 85.888 36.0546 86.176C36.5586 86.456 37.1106 86.596 37.7106 86.596C38.7586 86.596 39.5466 86.196 40.0746 85.396C40.6026 84.596 40.8666 83.352 40.8666 81.664C40.8666 80.56 40.7626 79.644 40.5546 78.916C40.3466 78.18 40.0306 77.632 39.6066 77.272C39.1826 76.904 38.6386 76.72 37.9746 76.72ZM55.5213 75.1C55.9293 75.1 56.3173 75.188 56.6853 75.364C57.0613 75.54 57.3693 75.88 57.6093 76.384C57.8493 76.888 57.9693 77.624 57.9693 78.592V88H56.0973V78.916C56.0973 78.124 56.0493 77.552 55.9533 77.2C55.8573 76.848 55.5813 76.672 55.1253 76.672C54.7493 76.672 54.3733 76.792 53.9973 77.032C53.6293 77.264 53.2693 77.648 52.9173 78.184V88H51.0333V78.916C51.0333 78.124 50.9853 77.552 50.8893 77.2C50.7933 76.848 50.5173 76.672 50.0613 76.672C49.6693 76.672 49.2893 76.792 48.9213 77.032C48.5613 77.264 48.2053 77.648 47.8533 78.184V88H45.9933V75.364H47.5773L47.6973 76.828C48.0413 76.34 48.4253 75.932 48.8493 75.604C49.2813 75.268 49.8133 75.1 50.4453 75.1C50.9253 75.1 51.3773 75.216 51.8013 75.448C52.2253 75.672 52.5373 76.112 52.7373 76.768C53.0813 76.272 53.4693 75.872 53.9013 75.568C54.3333 75.256 54.8733 75.1 55.5213 75.1ZM82.3705 75.364V86.404H85.9345V88H76.4545V86.404H80.3545V76.96H76.5745V75.364H82.3705ZM80.7625 69.448C81.2105 69.448 81.5665 69.584 81.8305 69.856C82.1025 70.128 82.2385 70.46 82.2385 70.852C82.2385 71.26 82.1025 71.604 81.8305 71.884C81.5665 72.156 81.2105 72.292 80.7625 72.292C80.3385 72.292 79.9905 72.156 79.7185 71.884C79.4465 71.604 79.3105 71.26 79.3105 70.852C79.3105 70.46 79.4465 70.128 79.7185 69.856C79.9905 69.584 80.3385 69.448 80.7625 69.448ZM90.3651 88V75.364H92.0811L92.2371 77.116C92.7491 76.468 93.3891 75.972 94.1571 75.628C94.9331 75.276 95.6851 75.1 96.4131 75.1C97.6531 75.1 98.5531 75.428 99.1131 76.084C99.6811 76.74 99.9651 77.652 99.9651 78.82V88H97.9491V80.308C97.9491 79.444 97.9011 78.748 97.8051 78.22C97.7091 77.684 97.5091 77.296 97.2051 77.056C96.9011 76.808 96.4291 76.684 95.7891 76.684C95.2931 76.684 94.8251 76.792 94.3851 77.008C93.9531 77.224 93.5651 77.496 93.2211 77.824C92.8851 78.144 92.6051 78.468 92.3811 78.796V88H90.3651ZM109.052 86.608C110.02 86.608 110.784 86.428 111.344 86.068C111.912 85.7 112.196 85.212 112.196 84.604C112.196 84.22 112.124 83.888 111.98 83.608C111.844 83.328 111.56 83.076 111.128 82.852C110.696 82.628 110.032 82.404 109.136 82.18C108.264 81.964 107.504 81.716 106.856 81.436C106.216 81.148 105.716 80.776 105.356 80.32C105.004 79.864 104.828 79.272 104.828 78.544C104.828 77.832 105.028 77.22 105.428 76.708C105.836 76.188 106.4 75.792 107.12 75.52C107.84 75.24 108.676 75.1 109.628 75.1C110.644 75.1 111.528 75.236 112.28 75.508C113.04 75.772 113.684 76.1 114.212 76.492L113.324 77.86C112.844 77.532 112.316 77.264 111.74 77.056C111.164 76.84 110.468 76.732 109.652 76.732C108.66 76.732 107.956 76.888 107.54 77.2C107.124 77.504 106.916 77.9 106.916 78.388C106.916 78.756 107.016 79.064 107.216 79.312C107.424 79.552 107.772 79.772 108.26 79.972C108.748 80.164 109.42 80.376 110.276 80.608C111.1 80.824 111.816 81.084 112.424 81.388C113.04 81.692 113.52 82.092 113.864 82.588C114.208 83.084 114.38 83.724 114.38 84.508C114.38 85.404 114.124 86.132 113.612 86.692C113.1 87.244 112.436 87.648 111.62 87.904C110.812 88.152 109.956 88.276 109.052 88.276C107.908 88.276 106.932 88.112 106.124 87.784C105.324 87.448 104.652 87.044 104.108 86.572L105.26 85.24C105.756 85.648 106.324 85.98 106.964 86.236C107.612 86.484 108.308 86.608 109.052 86.608ZM129.178 87.364C128.746 87.652 128.222 87.876 127.606 88.036C126.99 88.196 126.386 88.276 125.794 88.276C124.434 88.276 123.386 87.92 122.65 87.208C121.914 86.496 121.546 85.58 121.546 84.46V76.924H118.642V75.364H121.546V72.496L123.562 72.256V75.364H127.93L127.69 76.924H123.562V84.436C123.562 85.14 123.746 85.676 124.114 86.044C124.49 86.412 125.11 86.596 125.974 86.596C126.446 86.596 126.882 86.54 127.282 86.428C127.682 86.316 128.054 86.172 128.398 85.996L129.178 87.364ZM142.585 85.24C142.585 85.744 142.669 86.112 142.837 86.344C143.005 86.576 143.265 86.748 143.617 86.86L143.125 88.276C142.581 88.204 142.105 88.032 141.697 87.76C141.289 87.48 140.993 87.06 140.809 86.5C140.353 87.084 139.785 87.528 139.105 87.832C138.425 88.128 137.673 88.276 136.849 88.276C135.585 88.276 134.589 87.92 133.861 87.208C133.133 86.496 132.769 85.552 132.769 84.376C132.769 83.072 133.277 82.072 134.293 81.376C135.309 80.68 136.777 80.332 138.697 80.332H140.557V79.276C140.557 78.364 140.289 77.72 139.753 77.344C139.225 76.96 138.489 76.768 137.545 76.768C137.129 76.768 136.641 76.82 136.081 76.924C135.521 77.02 134.913 77.184 134.257 77.416L133.729 75.892C134.505 75.604 135.233 75.4 135.913 75.28C136.593 75.16 137.241 75.1 137.857 75.1C139.433 75.1 140.613 75.468 141.397 76.204C142.189 76.932 142.585 77.924 142.585 79.18V85.24ZM137.365 86.74C137.989 86.74 138.585 86.584 139.153 86.272C139.721 85.952 140.189 85.512 140.557 84.952V81.7H138.733C137.341 81.7 136.357 81.94 135.781 82.42C135.213 82.9 134.929 83.544 134.929 84.352C134.929 85.136 135.129 85.732 135.529 86.14C135.937 86.54 136.549 86.74 137.365 86.74ZM152.848 70.276V84.88C152.848 85.504 153.04 85.948 153.424 86.212C153.816 86.468 154.32 86.596 154.936 86.596C155.32 86.596 155.684 86.556 156.028 86.476C156.372 86.396 156.716 86.288 157.06 86.152L157.6 87.628C157.256 87.796 156.828 87.944 156.316 88.072C155.812 88.208 155.24 88.276 154.6 88.276C153.48 88.276 152.572 87.968 151.876 87.352C151.18 86.728 150.832 85.868 150.832 84.772V71.872H146.956V70.276H152.848ZM167.238 70.276V84.88C167.238 85.504 167.43 85.948 167.814 86.212C168.206 86.468 168.71 86.596 169.326 86.596C169.71 86.596 170.074 86.556 170.418 86.476C170.762 86.396 171.106 86.288 171.45 86.152L171.99 87.628C171.646 87.796 171.218 87.944 170.706 88.072C170.202 88.208 169.63 88.276 168.99 88.276C167.87 88.276 166.962 87.968 166.266 87.352C165.57 86.728 165.222 85.868 165.222 84.772V71.872H161.346V70.276H167.238ZM204.122 81.364V79.612H213.254V81.364H204.122ZM192.902 81.364V79.612H202.034V81.364H192.902ZM230.417 75.364L225.821 88H223.481L218.921 75.364H221.057L224.717 86.164L228.329 75.364H230.417ZM235.855 82.396C235.895 83.372 236.083 84.172 236.419 84.796C236.755 85.412 237.199 85.868 237.751 86.164C238.303 86.452 238.903 86.596 239.551 86.596C240.199 86.596 240.783 86.5 241.303 86.308C241.831 86.116 242.371 85.832 242.923 85.456L243.871 86.788C243.279 87.252 242.603 87.616 241.843 87.88C241.091 88.144 240.319 88.276 239.527 88.276C238.303 88.276 237.259 88 236.395 87.448C235.531 86.896 234.871 86.128 234.415 85.144C233.967 84.152 233.743 83.004 233.743 81.7C233.743 80.42 233.971 79.284 234.427 78.292C234.883 77.3 235.523 76.52 236.347 75.952C237.171 75.384 238.143 75.1 239.263 75.1C240.327 75.1 241.243 75.352 242.011 75.856C242.779 76.352 243.367 77.064 243.775 77.992C244.191 78.912 244.399 80.012 244.399 81.292C244.399 81.508 244.395 81.712 244.387 81.904C244.379 82.088 244.367 82.252 244.351 82.396H235.855ZM239.287 76.756C238.351 76.756 237.567 77.088 236.935 77.752C236.311 78.416 235.955 79.444 235.867 80.836H242.455C242.431 79.484 242.135 78.468 241.567 77.788C240.999 77.1 240.239 76.756 239.287 76.756ZM248.782 88V86.452H250.75V76.912H248.782V75.364H252.286L252.658 78.352C253.146 77.312 253.738 76.508 254.434 75.94C255.13 75.372 256.05 75.088 257.194 75.088C257.546 75.088 257.858 75.116 258.13 75.172C258.41 75.22 258.694 75.284 258.982 75.364L258.394 77.164C258.13 77.092 257.89 77.04 257.674 77.008C257.458 76.968 257.21 76.948 256.93 76.948C255.962 76.948 255.13 77.292 254.434 77.98C253.738 78.668 253.182 79.708 252.766 81.1V86.452H255.334V88H248.782ZM257.038 79.636V76.888L257.242 75.364H258.982L258.694 79.636H257.038ZM267.349 86.608C268.317 86.608 269.081 86.428 269.641 86.068C270.209 85.7 270.493 85.212 270.493 84.604C270.493 84.22 270.421 83.888 270.277 83.608C270.141 83.328 269.857 83.076 269.425 82.852C268.993 82.628 268.329 82.404 267.433 82.18C266.561 81.964 265.801 81.716 265.153 81.436C264.513 81.148 264.013 80.776 263.653 80.32C263.301 79.864 263.125 79.272 263.125 78.544C263.125 77.832 263.325 77.22 263.725 76.708C264.133 76.188 264.697 75.792 265.417 75.52C266.137 75.24 266.973 75.1 267.925 75.1C268.941 75.1 269.825 75.236 270.577 75.508C271.337 75.772 271.981 76.1 272.509 76.492L271.621 77.86C271.141 77.532 270.613 77.264 270.037 77.056C269.461 76.84 268.765 76.732 267.949 76.732C266.957 76.732 266.253 76.888 265.837 77.2C265.421 77.504 265.213 77.9 265.213 78.388C265.213 78.756 265.313 79.064 265.513 79.312C265.721 79.552 266.069 79.772 266.557 79.972C267.045 80.164 267.717 80.376 268.573 80.608C269.397 80.824 270.113 81.084 270.721 81.388C271.337 81.692 271.817 82.092 272.161 82.588C272.505 83.084 272.677 83.724 272.677 84.508C272.677 85.404 272.421 86.132 271.909 86.692C271.397 87.244 270.733 87.648 269.917 87.904C269.109 88.152 268.253 88.276 267.349 88.276C266.205 88.276 265.229 88.112 264.421 87.784C263.621 87.448 262.949 87.044 262.405 86.572L263.557 85.24C264.053 85.648 264.621 85.98 265.261 86.236C265.909 86.484 266.605 86.608 267.349 86.608ZM283.839 75.364V86.404H287.403V88H277.923V86.404H281.823V76.96H278.043V75.364H283.839ZM282.231 69.448C282.679 69.448 283.035 69.584 283.299 69.856C283.571 70.128 283.707 70.46 283.707 70.852C283.707 71.26 283.571 71.604 283.299 71.884C283.035 72.156 282.679 72.292 282.231 72.292C281.807 72.292 281.459 72.156 281.187 71.884C280.915 71.604 280.779 71.26 280.779 70.852C280.779 70.46 280.915 70.128 281.187 69.856C281.459 69.584 281.807 69.448 282.231 69.448ZM296.646 75.1C297.838 75.1 298.834 75.372 299.634 75.916C300.442 76.452 301.046 77.212 301.446 78.196C301.854 79.18 302.058 80.34 302.058 81.676C302.058 82.964 301.85 84.104 301.434 85.096C301.018 86.088 300.406 86.868 299.598 87.436C298.798 87.996 297.806 88.276 296.622 88.276C295.438 88.276 294.442 88.004 293.634 87.46C292.826 86.916 292.214 86.152 291.798 85.168C291.39 84.176 291.186 83.02 291.186 81.7C291.186 80.396 291.394 79.248 291.81 78.256C292.226 77.264 292.838 76.492 293.646 75.94C294.462 75.38 295.462 75.1 296.646 75.1ZM296.646 76.744C295.558 76.744 294.734 77.148 294.174 77.956C293.622 78.756 293.346 80.004 293.346 81.7C293.346 83.364 293.618 84.6 294.162 85.408C294.714 86.216 295.534 86.62 296.622 86.62C297.71 86.62 298.526 86.216 299.07 85.408C299.622 84.6 299.898 83.356 299.898 81.676C299.898 79.996 299.626 78.756 299.082 77.956C298.538 77.148 297.726 76.744 296.646 76.744ZM306.225 88V75.364H307.941L308.097 77.116C308.609 76.468 309.249 75.972 310.017 75.628C310.793 75.276 311.545 75.1 312.273 75.1C313.513 75.1 314.413 75.428 314.973 76.084C315.541 76.74 315.825 77.652 315.825 78.82V88H313.809V80.308C313.809 79.444 313.761 78.748 313.665 78.22C313.569 77.684 313.369 77.296 313.065 77.056C312.761 76.808 312.289 76.684 311.649 76.684C311.153 76.684 310.685 76.792 310.245 77.008C309.813 77.224 309.425 77.496 309.081 77.824C308.745 78.144 308.465 78.468 308.241 78.796V88H306.225ZM339.062 71.212C340.102 71.212 340.99 71.412 341.726 71.812C342.47 72.212 343.042 72.76 343.442 73.456C343.842 74.152 344.042 74.94 344.042 75.82C344.042 76.58 343.91 77.324 343.646 78.052C343.382 78.772 342.958 79.532 342.374 80.332C341.798 81.124 341.038 82.004 340.094 82.972C339.158 83.94 338.006 85.044 336.638 86.284H344.426L344.174 88H334.346V86.356C335.594 85.164 336.654 84.12 337.526 83.224C338.406 82.328 339.13 81.544 339.698 80.872C340.274 80.192 340.722 79.576 341.042 79.024C341.37 78.472 341.598 77.948 341.726 77.452C341.854 76.948 341.918 76.428 341.918 75.892C341.918 74.964 341.654 74.232 341.126 73.696C340.606 73.16 339.886 72.892 338.966 72.892C338.15 72.892 337.482 73.032 336.962 73.312C336.442 73.592 335.922 74.04 335.402 74.656L334.01 73.576C334.666 72.776 335.394 72.184 336.194 71.8C336.994 71.408 337.95 71.212 339.062 71.212ZM352.06 86.152C352.06 85.76 352.152 85.408 352.336 85.096C352.52 84.776 352.768 84.524 353.08 84.34C353.4 84.148 353.76 84.052 354.16 84.052C354.568 84.052 354.932 84.148 355.252 84.34C355.572 84.524 355.824 84.776 356.008 85.096C356.192 85.408 356.284 85.76 356.284 86.152C356.284 86.544 356.192 86.904 356.008 87.232C355.824 87.552 355.572 87.808 355.252 88C354.932 88.184 354.568 88.276 354.16 88.276C353.76 88.276 353.4 88.184 353.08 88C352.768 87.808 352.52 87.552 352.336 87.232C352.152 86.904 352.06 86.544 352.06 86.152ZM368.575 71.212C370.359 71.212 371.707 71.948 372.619 73.42C373.531 74.892 373.987 76.996 373.987 79.732C373.987 82.476 373.531 84.588 372.619 86.068C371.707 87.54 370.359 88.276 368.575 88.276C366.799 88.276 365.451 87.54 364.531 86.068C363.619 84.588 363.163 82.476 363.163 79.732C363.163 76.996 363.619 74.892 364.531 73.42C365.451 71.948 366.799 71.212 368.575 71.212ZM368.575 72.832C367.559 72.832 366.759 73.372 366.175 74.452C365.591 75.524 365.299 77.284 365.299 79.732C365.299 80.972 365.363 82.032 365.491 82.912C365.619 83.792 365.815 84.508 366.079 85.06C366.351 85.604 366.691 86.004 367.099 86.26C367.515 86.516 368.007 86.644 368.575 86.644C369.263 86.644 369.851 86.408 370.339 85.936C370.835 85.464 371.211 84.72 371.467 83.704C371.731 82.68 371.863 81.356 371.863 79.732C371.863 78.084 371.747 76.752 371.515 75.736C371.291 74.72 370.935 73.984 370.447 73.528C369.967 73.064 369.343 72.832 368.575 72.832ZM371.011 73.42L371.539 75.184L366.283 85.828L365.539 84.424L371.011 73.42Z" fill="#B9C0C0"/>
<circle cx="24" cy="24" r="8" fill="#FF5F56"/>
<circle cx="46" cy="24" r="8" fill="#FFBD2E"/>
<circle cx="68" cy="24" r="8" fill="#27C93F"/>
</svg>
